<svg xmlns="http://www.w3.org/2000/svg" width="109.021" height="27.373" viewBox="0 0 109.021 27.373">
  <g id="Group_103" data-name="Group 103" transform="translate(7226.493 -595.865)">
    <path id="Path_51" data-name="Path 51" d="M11-14.6v1.953H7.119V0H4.725V-12.642H.819V-14.6Zm1.617,8.757a6.4,6.4,0,0,1,.724-3.087,5.31,5.31,0,0,1,1.974-2.09,5.288,5.288,0,0,1,2.762-.745,5.051,5.051,0,0,1,2.383.536,4.837,4.837,0,0,1,1.628,1.333v-1.68h2.415V0H22.092V-1.722A4.754,4.754,0,0,1,20.433-.357a5.113,5.113,0,0,1-2.394.546,5.088,5.088,0,0,1-2.73-.767A5.436,5.436,0,0,1,13.345-2.72,6.589,6.589,0,0,1,12.621-5.838Zm9.471.042A4.19,4.19,0,0,0,21.6-7.875a3.464,3.464,0,0,0-1.292-1.344,3.379,3.379,0,0,0-1.722-.462,3.439,3.439,0,0,0-1.722.451,3.4,3.4,0,0,0-1.291,1.323,4.131,4.131,0,0,0-.493,2.068,4.31,4.31,0,0,0,.493,2.1,3.482,3.482,0,0,0,1.3,1.375,3.339,3.339,0,0,0,1.711.473,3.379,3.379,0,0,0,1.722-.462A3.447,3.447,0,0,0,21.6-3.707,4.25,4.25,0,0,0,22.092-5.8ZM31.857.189A5.83,5.83,0,0,1,29.411-.3,4.3,4.3,0,0,1,27.7-1.649a3.35,3.35,0,0,1-.672-1.9h2.478a1.69,1.69,0,0,0,.7,1.229,2.554,2.554,0,0,0,1.607.493,2.706,2.706,0,0,0,1.565-.388,1.172,1.172,0,0,0,.556-1,1.024,1.024,0,0,0-.619-.966,11.612,11.612,0,0,0-1.964-.693,18.951,18.951,0,0,1-2.121-.693,3.718,3.718,0,0,1-1.417-1.029,2.7,2.7,0,0,1-.6-1.827,2.849,2.849,0,0,1,.546-1.691,3.636,3.636,0,0,1,1.564-1.207,5.845,5.845,0,0,1,2.342-.441,4.835,4.835,0,0,1,3.182,1,3.582,3.582,0,0,1,1.292,2.72H33.747a1.705,1.705,0,0,0-.63-1.239,2.356,2.356,0,0,0-1.533-.462,2.488,2.488,0,0,0-1.449.357,1.105,1.105,0,0,0-.5.945,1.023,1.023,0,0,0,.336.777,2.393,2.393,0,0,0,.819.493q.483.179,1.428.451a15.534,15.534,0,0,1,2.069.682,3.851,3.851,0,0,1,1.4,1.019,2.7,2.7,0,0,1,.609,1.785,2.994,2.994,0,0,1-.546,1.764A3.62,3.62,0,0,1,34.2-.252,5.751,5.751,0,0,1,31.857.189Zm9.807-9.807v6.405a1.229,1.229,0,0,0,.3.935A1.514,1.514,0,0,0,43.008-2h1.47V0h-1.89A3.643,3.643,0,0,1,40.11-.756a3.116,3.116,0,0,1-.861-2.457V-9.618H37.884v-1.953h1.365v-2.877h2.415v2.877h2.814v1.953ZM57.288-6.069A7.485,7.485,0,0,1,57.2-4.893H48.363a3.211,3.211,0,0,0,1.029,2.226,3.248,3.248,0,0,0,2.268.84,2.8,2.8,0,0,0,2.73-1.617h2.583a5.212,5.212,0,0,1-1.9,2.614A5.576,5.576,0,0,1,51.66.189a5.909,5.909,0,0,1-2.972-.746,5.3,5.3,0,0,1-2.058-2.1,6.406,6.406,0,0,1-.745-3.14,6.557,6.557,0,0,1,.724-3.139,5.1,5.1,0,0,1,2.037-2.09,6.062,6.062,0,0,1,3.014-.735,5.893,5.893,0,0,1,2.919.714,5.045,5.045,0,0,1,1.995,2.005A6.04,6.04,0,0,1,57.288-6.069Zm-2.5-.756a2.724,2.724,0,0,0-.945-2.121,3.379,3.379,0,0,0-2.289-.8,3.075,3.075,0,0,0-2.121.788,3.291,3.291,0,0,0-1.05,2.131Zm9.7-2.793H62.349V0H59.934V-9.618H58.569v-1.953h1.365v-.819A3.642,3.642,0,0,1,60.995-15.3a5.029,5.029,0,0,1,3.329-.913v1.995a2.247,2.247,0,0,0-1.533.41,1.878,1.878,0,0,0-.441,1.418v.819h2.142Zm12.537-1.953-7.1,17.01H67.452L69.8-.189,65.247-11.571h2.667l3.255,8.82,3.381-8.82Z" transform="translate(-7194.5 617.258)" fill="#464646"/>
    <g id="_16538534611595501138" data-name="16538534611595501138" transform="translate(-7229.9 593.279)">
      <path id="Path_46" data-name="Path 46" d="M6.5,13.5a6.519,6.519,0,0,1,0-9.3L17.6,15.3,21.3,19,27,24.7a2.417,2.417,0,0,1,0,3.5h0a2.491,2.491,0,0,1-3.7-.2l-4.1-5.1a3.819,3.819,0,0,0-4.4-1.1h0Z" fill="none" stroke="#464646" stroke-linecap="round" stroke-linejoin="round" stroke-miterlimit="10" stroke-width="2"/>
      <line id="Line_22" data-name="Line 22" y1="5.4" x2="5.4" transform="translate(21.3 6.7)" fill="none" stroke="#464646" stroke-linecap="round" stroke-linejoin="round" stroke-miterlimit="10" stroke-width="2"/>
      <path id="Path_47" data-name="Path 47" d="M19.1,16.8c.4-.1.7-.1,1.1-.2a7.058,7.058,0,0,0,4.3-2.3l4.9-4.9" fill="none" stroke="#464646" stroke-linecap="round" stroke-linejoin="round" stroke-miterlimit="10" stroke-width="2"/>
      <path id="Path_48" data-name="Path 48" d="M12.3,19.3,5.3,25a2.127,2.127,0,0,0-.2,3.3,2.19,2.19,0,0,0,3.3-.2L14.1,21" fill="none" stroke="#464646" stroke-linecap="round" stroke-linejoin="round" stroke-miterlimit="10" stroke-width="2"/>
      <path id="Path_49" data-name="Path 49" d="M24,4,19,8.9c-1.5,1.5-2.3,3-2.3,4.3a4.253,4.253,0,0,1-.2,1.1" fill="none" stroke="#464646" stroke-linecap="round" stroke-linejoin="round" stroke-miterlimit="10" stroke-width="2"/>
    </g>
  </g>
</svg>
